<mxfile host="app.diagrams.net" modified="2023-10-09T19:10:20.199Z" agent="Mozilla/5.0 (Windows NT 10.0; Win64; x64) AppleWebKit/537.36 (KHTML, like Gecko) Chrome/117.0.0.0 Safari/537.36" etag="ekAwClon9t_VfGfjJhoc" version="21.7.5" type="device">
  <diagram name="Pagina-1" id="KUAabDkBrHqm6Pmq3zTb">
    <mxGraphModel dx="2257" dy="766" grid="1" gridSize="10" guides="1" tooltips="1" connect="1" arrows="1" fold="1" page="1" pageScale="1" pageWidth="827" pageHeight="1169" math="0" shadow="0">
      <root>
        <mxCell id="0" />
        <mxCell id="1" parent="0" />
        <mxCell id="gPMuC1Yfml7L5853tLmW-4" value="" style="rounded=0;whiteSpace=wrap;html=1;" vertex="1" parent="1">
          <mxGeometry x="-260" y="150" width="1020" height="910" as="geometry" />
        </mxCell>
        <mxCell id="gPMuC1Yfml7L5853tLmW-11" style="edgeStyle=orthogonalEdgeStyle;rounded=0;orthogonalLoop=1;jettySize=auto;html=1;exitX=0.5;exitY=0;exitDx=0;exitDy=0;entryX=0.5;entryY=1;entryDx=0;entryDy=0;" edge="1" parent="1" source="gPMuC1Yfml7L5853tLmW-2" target="gPMuC1Yfml7L5853tLmW-6">
          <mxGeometry relative="1" as="geometry" />
        </mxCell>
        <mxCell id="gPMuC1Yfml7L5853tLmW-12" style="edgeStyle=orthogonalEdgeStyle;rounded=0;orthogonalLoop=1;jettySize=auto;html=1;exitX=0.5;exitY=0;exitDx=0;exitDy=0;entryX=0.5;entryY=1;entryDx=0;entryDy=0;" edge="1" parent="1" source="gPMuC1Yfml7L5853tLmW-3" target="gPMuC1Yfml7L5853tLmW-2">
          <mxGeometry relative="1" as="geometry" />
        </mxCell>
        <mxCell id="gPMuC1Yfml7L5853tLmW-5" value="thuisnetwerk" style="text;html=1;strokeColor=none;fillColor=none;align=center;verticalAlign=middle;whiteSpace=wrap;rounded=0;" vertex="1" parent="1">
          <mxGeometry x="690" y="160" width="60" height="30" as="geometry" />
        </mxCell>
        <mxCell id="gPMuC1Yfml7L5853tLmW-19" style="edgeStyle=orthogonalEdgeStyle;rounded=0;orthogonalLoop=1;jettySize=auto;html=1;exitX=0.5;exitY=0;exitDx=0;exitDy=0;entryX=0.5;entryY=1;entryDx=0;entryDy=0;" edge="1" parent="1" source="gPMuC1Yfml7L5853tLmW-6" target="gPMuC1Yfml7L5853tLmW-18">
          <mxGeometry relative="1" as="geometry" />
        </mxCell>
        <mxCell id="gPMuC1Yfml7L5853tLmW-6" value="router" style="rounded=0;whiteSpace=wrap;html=1;" vertex="1" parent="1">
          <mxGeometry x="380" y="240" width="120" height="60" as="geometry" />
        </mxCell>
        <mxCell id="gPMuC1Yfml7L5853tLmW-16" style="edgeStyle=orthogonalEdgeStyle;rounded=0;orthogonalLoop=1;jettySize=auto;html=1;exitX=0.5;exitY=0;exitDx=0;exitDy=0;entryX=0;entryY=0.5;entryDx=0;entryDy=0;" edge="1" parent="1" source="gPMuC1Yfml7L5853tLmW-7" target="gPMuC1Yfml7L5853tLmW-6">
          <mxGeometry relative="1" as="geometry" />
        </mxCell>
        <mxCell id="gPMuC1Yfml7L5853tLmW-7" value="pihole" style="rounded=0;whiteSpace=wrap;html=1;" vertex="1" parent="1">
          <mxGeometry x="200" y="330" width="120" height="60" as="geometry" />
        </mxCell>
        <mxCell id="gPMuC1Yfml7L5853tLmW-14" value="dataverkeer" style="text;html=1;strokeColor=none;fillColor=none;align=center;verticalAlign=middle;whiteSpace=wrap;rounded=0;" vertex="1" parent="1">
          <mxGeometry x="450" y="345" width="60" height="30" as="geometry" />
        </mxCell>
        <mxCell id="gPMuC1Yfml7L5853tLmW-15" value="dns request + dns filter" style="text;html=1;strokeColor=none;fillColor=none;align=center;verticalAlign=middle;whiteSpace=wrap;rounded=0;" vertex="1" parent="1">
          <mxGeometry x="160" y="400" width="100" height="60" as="geometry" />
        </mxCell>
        <mxCell id="gPMuC1Yfml7L5853tLmW-17" value="externe DNS request" style="text;html=1;strokeColor=none;fillColor=none;align=center;verticalAlign=middle;whiteSpace=wrap;rounded=0;" vertex="1" parent="1">
          <mxGeometry x="220" y="240" width="120" height="30" as="geometry" />
        </mxCell>
        <mxCell id="gPMuC1Yfml7L5853tLmW-18" value="WAN" style="rounded=0;whiteSpace=wrap;html=1;" vertex="1" parent="1">
          <mxGeometry x="380" y="20" width="120" height="60" as="geometry" />
        </mxCell>
        <mxCell id="gPMuC1Yfml7L5853tLmW-23" value="" style="rounded=0;whiteSpace=wrap;html=1;" vertex="1" parent="1">
          <mxGeometry x="90" y="450" width="629" height="520" as="geometry" />
        </mxCell>
        <mxCell id="gPMuC1Yfml7L5853tLmW-25" style="edgeStyle=orthogonalEdgeStyle;rounded=0;orthogonalLoop=1;jettySize=auto;html=1;exitX=0.5;exitY=0;exitDx=0;exitDy=0;entryX=0.5;entryY=0;entryDx=0;entryDy=0;" edge="1" parent="1" source="gPMuC1Yfml7L5853tLmW-10" target="gPMuC1Yfml7L5853tLmW-1">
          <mxGeometry relative="1" as="geometry" />
        </mxCell>
        <mxCell id="gPMuC1Yfml7L5853tLmW-10" value="api.nmdammer.com" style="rounded=0;whiteSpace=wrap;html=1;" vertex="1" parent="1">
          <mxGeometry x="120" y="690" width="120" height="60" as="geometry" />
        </mxCell>
        <mxCell id="gPMuC1Yfml7L5853tLmW-26" style="edgeStyle=orthogonalEdgeStyle;rounded=0;orthogonalLoop=1;jettySize=auto;html=1;exitX=0.5;exitY=0;exitDx=0;exitDy=0;entryX=0.5;entryY=0;entryDx=0;entryDy=0;" edge="1" parent="1" source="gPMuC1Yfml7L5853tLmW-1" target="gPMuC1Yfml7L5853tLmW-8">
          <mxGeometry relative="1" as="geometry" />
        </mxCell>
        <mxCell id="gPMuC1Yfml7L5853tLmW-1" value="nmdammer.com" style="rounded=0;whiteSpace=wrap;html=1;" vertex="1" parent="1">
          <mxGeometry x="280" y="690" width="120" height="60" as="geometry" />
        </mxCell>
        <mxCell id="gPMuC1Yfml7L5853tLmW-27" style="edgeStyle=orthogonalEdgeStyle;rounded=0;orthogonalLoop=1;jettySize=auto;html=1;exitX=0.5;exitY=0;exitDx=0;exitDy=0;entryX=0.5;entryY=0;entryDx=0;entryDy=0;" edge="1" parent="1" source="gPMuC1Yfml7L5853tLmW-8" target="gPMuC1Yfml7L5853tLmW-9">
          <mxGeometry relative="1" as="geometry" />
        </mxCell>
        <mxCell id="gPMuC1Yfml7L5853tLmW-28" style="edgeStyle=orthogonalEdgeStyle;rounded=0;orthogonalLoop=1;jettySize=auto;html=1;exitX=0.5;exitY=0;exitDx=0;exitDy=0;entryX=0.5;entryY=1;entryDx=0;entryDy=0;" edge="1" parent="1" source="gPMuC1Yfml7L5853tLmW-8" target="gPMuC1Yfml7L5853tLmW-3">
          <mxGeometry relative="1" as="geometry" />
        </mxCell>
        <mxCell id="gPMuC1Yfml7L5853tLmW-8" value="forum.nmdammer.com" style="rounded=0;whiteSpace=wrap;html=1;" vertex="1" parent="1">
          <mxGeometry x="420" y="690" width="140" height="60" as="geometry" />
        </mxCell>
        <mxCell id="gPMuC1Yfml7L5853tLmW-9" value="cms.nmdammer.com" style="rounded=0;whiteSpace=wrap;html=1;" vertex="1" parent="1">
          <mxGeometry x="580" y="690" width="120" height="60" as="geometry" />
        </mxCell>
        <mxCell id="gPMuC1Yfml7L5853tLmW-29" style="edgeStyle=orthogonalEdgeStyle;rounded=0;orthogonalLoop=1;jettySize=auto;html=1;exitX=0.5;exitY=0;exitDx=0;exitDy=0;entryX=0.5;entryY=1;entryDx=0;entryDy=0;" edge="1" parent="1" source="gPMuC1Yfml7L5853tLmW-3" target="gPMuC1Yfml7L5853tLmW-2">
          <mxGeometry relative="1" as="geometry" />
        </mxCell>
        <mxCell id="gPMuC1Yfml7L5853tLmW-3" value="cerbot" style="rounded=0;whiteSpace=wrap;html=1;" vertex="1" parent="1">
          <mxGeometry x="380" y="550" width="120" height="60" as="geometry" />
        </mxCell>
        <mxCell id="gPMuC1Yfml7L5853tLmW-2" value="reverse proxy" style="rounded=0;whiteSpace=wrap;html=1;" vertex="1" parent="1">
          <mxGeometry x="380" y="460" width="120" height="60" as="geometry" />
        </mxCell>
        <mxCell id="gPMuC1Yfml7L5853tLmW-13" style="edgeStyle=orthogonalEdgeStyle;rounded=0;orthogonalLoop=1;jettySize=auto;html=1;exitX=0;exitY=0.5;exitDx=0;exitDy=0;entryX=0.5;entryY=1;entryDx=0;entryDy=0;" edge="1" parent="1" source="gPMuC1Yfml7L5853tLmW-2" target="gPMuC1Yfml7L5853tLmW-7">
          <mxGeometry relative="1" as="geometry" />
        </mxCell>
        <mxCell id="gPMuC1Yfml7L5853tLmW-24" value="Docker netwerk" style="text;html=1;strokeColor=none;fillColor=none;align=center;verticalAlign=middle;whiteSpace=wrap;rounded=0;" vertex="1" parent="1">
          <mxGeometry x="590" y="460" width="110" height="30" as="geometry" />
        </mxCell>
        <mxCell id="gPMuC1Yfml7L5853tLmW-36" style="edgeStyle=orthogonalEdgeStyle;rounded=0;orthogonalLoop=1;jettySize=auto;html=1;exitX=0.5;exitY=0;exitDx=0;exitDy=0;entryX=0.5;entryY=1;entryDx=0;entryDy=0;" edge="1" parent="1" source="gPMuC1Yfml7L5853tLmW-32" target="gPMuC1Yfml7L5853tLmW-6">
          <mxGeometry relative="1" as="geometry">
            <Array as="points">
              <mxPoint x="-105" y="410" />
              <mxPoint x="440" y="410" />
            </Array>
          </mxGeometry>
        </mxCell>
        <mxCell id="gPMuC1Yfml7L5853tLmW-38" style="edgeStyle=orthogonalEdgeStyle;rounded=0;orthogonalLoop=1;jettySize=auto;html=1;exitX=0.5;exitY=0;exitDx=0;exitDy=0;entryX=0;entryY=0.5;entryDx=0;entryDy=0;" edge="1" parent="1" source="gPMuC1Yfml7L5853tLmW-32" target="gPMuC1Yfml7L5853tLmW-7">
          <mxGeometry relative="1" as="geometry" />
        </mxCell>
        <mxCell id="gPMuC1Yfml7L5853tLmW-32" value="" style="rounded=0;whiteSpace=wrap;html=1;" vertex="1" parent="1">
          <mxGeometry x="-240" y="470" width="270" height="170" as="geometry" />
        </mxCell>
        <mxCell id="gPMuC1Yfml7L5853tLmW-33" style="edgeStyle=orthogonalEdgeStyle;rounded=0;orthogonalLoop=1;jettySize=auto;html=1;exitX=0.5;exitY=0;exitDx=0;exitDy=0;entryX=0.5;entryY=0;entryDx=0;entryDy=0;" edge="1" parent="1" source="gPMuC1Yfml7L5853tLmW-31" target="gPMuC1Yfml7L5853tLmW-10">
          <mxGeometry relative="1" as="geometry" />
        </mxCell>
        <mxCell id="gPMuC1Yfml7L5853tLmW-31" value="jenkins" style="rounded=0;whiteSpace=wrap;html=1;" vertex="1" parent="1">
          <mxGeometry x="120" y="820" width="120" height="60" as="geometry" />
        </mxCell>
        <mxCell id="gPMuC1Yfml7L5853tLmW-30" value="DB" style="rounded=0;whiteSpace=wrap;html=1;" vertex="1" parent="1">
          <mxGeometry x="-230" y="570" width="120" height="60" as="geometry" />
        </mxCell>
        <mxCell id="gPMuC1Yfml7L5853tLmW-34" value="owncloud" style="rounded=0;whiteSpace=wrap;html=1;" vertex="1" parent="1">
          <mxGeometry x="-100" y="570" width="120" height="60" as="geometry" />
        </mxCell>
        <mxCell id="gPMuC1Yfml7L5853tLmW-35" value="docker network" style="text;html=1;strokeColor=none;fillColor=none;align=center;verticalAlign=middle;whiteSpace=wrap;rounded=0;" vertex="1" parent="1">
          <mxGeometry x="-40" y="475" width="60" height="30" as="geometry" />
        </mxCell>
      </root>
    </mxGraphModel>
  </diagram>
</mxfile>
